<svg xmlns="http://www.w3.org/2000/svg" viewBox="0 0 318.38 24.83"><defs><style>.cls-1,.cls-2{fill:#444;}.cls-1{fill-rule:evenodd;}</style></defs><title>Asset 3</title><g id="Layer_2" data-name="Layer 2"><g id="Õ__1" data-name="Õº≤„_1"><path class="cls-1" d="M9.1,17.21C5.47,17-1.06,11.76,5.13,9.9c4.44-1.33,9.87,2.74,13.27,5l.19.12A19.33,19.33,0,0,1,9.1,17.21ZM23.66,5.76c-1.7-.31-2.4-4.35.32-2.87.87.47.95,1.7.79,3a6.64,6.64,0,0,1-1.11-.1Zm6.22,7.49c0,.32,0,1.37,0,2.18.35-.69,1.65-.91,1.89-2.18.53-2.84,5.89-5.53,11.72-3.95,9.2,2.49,8.91,14.7-3.13,13.38-7-.76-12.83-5.15-18.65-9.23a18.63,18.63,0,0,0,3.9-5.72A17,17,0,0,0,31.74,4a9.83,9.83,0,0,1,4.7-2c1.88-.18,3.15.65,2.44,1.93-.49.9-2.4,1.54-2.52-.22-.6,1.34,1.46,3,3.18.94,1.53-1.8.43-3.24-.93-3.72-1.86-.65-5.15.88-7.53,2.85a10.44,10.44,0,0,1-4.82,2,10.92,10.92,0,0,0,.2-4.24c-.42-2.92-3.35-.8-4.23.17-2.64,2.93-2.69,7,2.12,6.33a9.44,9.44,0,0,1-3,5.19,66.53,66.53,0,0,0-7.1-4.48C9.43,6.19,2.88,7.82.71,11.14c-1.59,2.42-.58,6.07,3.79,8,3.29,1.47,7.34.36,10.45-.93a19.36,19.36,0,0,0,4.42-2.64,120.31,120.31,0,0,0,10.74,6.9C47.67,31.89,62.59,10.2,43.49,6.66,37.25,5.5,29.88,7.86,29.88,13.25Z"/><path class="cls-1" d="M309.28,17.2c3.64-.22,10.16-5.45,4-7.31-2.23-.67-4.69,0-7,1.15A53.36,53.36,0,0,0,300,14.91l-.18.13a19.38,19.38,0,0,0,9.48,2.16ZM294.73,5.75c1.69-.32,2.39-4.36-.33-2.88-.86.47-.95,1.71-.79,3a6.77,6.77,0,0,0,1.12-.09Zm-6.23,7.48v2.18c-.35-.69-1.65-.91-1.89-2.18-.53-2.84-5.88-5.52-11.71-3.94C265.69,11.78,266,24,278,22.67c7-.77,12.84-5.15,18.65-9.24a19,19,0,0,1-3.9-5.72A17.32,17.32,0,0,1,286.64,4a9.79,9.79,0,0,0-4.69-2c-1.89-.18-3.15.65-2.45,1.94.49.9,2.4,1.53,2.52-.22.6,1.33-1.46,3-3.18.93-1.52-1.8-.42-3.24.93-3.71,1.86-.65,5.15.88,7.53,2.84a10.45,10.45,0,0,0,4.82,2,11.36,11.36,0,0,1-.2-4.25c.42-2.91,3.36-.79,4.23.18,2.65,2.92,2.69,7-2.11,6.32a9.32,9.32,0,0,0,3,5.19,65.43,65.43,0,0,1,7.09-4.48c4.83-2.52,11.37-.88,13.55,2.43,1.58,2.42.58,6.07-3.79,8-3.29,1.47-7.35.36-10.46-.93A19.49,19.49,0,0,1,299,15.57a119.67,119.67,0,0,1-10.75,6.9c-17.56,9.4-32.48-12.29-13.37-15.83C281.13,5.48,288.5,7.85,288.5,13.23Z"/><path class="cls-2" d="M36.78,13.23c-2.14.3-4.85.5-6.9.66a2.57,2.57,0,0,1,.51,1.52H288.5V13.23Z"/></g></g></svg>